<?xml version="1.0" encoding="iso-8859-1"?>
<!DOCTYPE svg PUBLIC "-//W3C//DTD SVG 1.1//EN" "http://www.w3.org/Graphics/SVG/1.1/DTD/svg11.dtd">
<svg 
 version="1.1" xmlns="http://www.w3.org/2000/svg" xmlns:xlink="http://www.w3.org/1999/xlink" x="0px" y="0px" width="512px"
	 height="512px" viewBox="0 0 512 512" enable-background="new 0 0 512 512" xml:space="preserve"
><g id="b75708d097f2188dff6617b0f00cf753"><g></g><path display="inline" d="M511.5,408.593h-70.97v70.97h-70.978v-70.97h-70.97v-70.978h70.97v-70.97h70.978v70.97h70.97V408.593z
		 M264.517,408.593v-70.978c0-18.813,15.254-34.066,34.066-34.066h36.903V285.28c-25.505-11.01-66.254-28.665-70.438-30.486V235.64
		c0-1.443,0.445-3.782,1.368-7.023c0.906-3.152,1.917-6.479,3.02-9.979c1.26-4.002,2.636-8.3,4.096-12.823
		c5.281-9.893,9.444-20.967,12.463-33.304c3.011-12.338,4.521-25.315,4.521-39.021c0-18.607-1.95-34.393-5.889-47.235
		c-3.946-12.889-9.314-23.286-16.172-31.239c-6.846-7.937-14.775-13.671-23.824-17.239c-9.032-3.588-18.651-5.339-28.881-5.339
		c-10.417,0-20.127,1.805-29.156,5.477c-9.053,3.639-16.946,9.496-23.683,17.535c-6.774,8.022-12.105,18.418-16.052,31.208
		c-3.909,12.769-5.888,28.382-5.888,46.833c0,14.054,1.567,27.344,4.67,39.853c3.102,12.511,7.311,23.67,12.6,33.528
		c1.452,4.213,2.753,8.145,3.826,11.767c0.927,3.117,1.775,6.169,2.62,9.184c0.811,3.013,1.41,5.265,1.763,6.704v18.36
		c-5.66,2.549-125.151,53.212-128.989,54.477c-7.489,2.757-13.586,6.898-18.343,12.492c-4.741,5.568-8.496,11.215-11.236,17.104
		C4.596,343.716,2.155,350.84,0.5,358.32v63.497h266.683C265.465,417.75,264.517,413.284,264.517,408.593z"></path></g></svg>