<?xml version="1.0" encoding="iso-8859-1"?>
<!DOCTYPE svg PUBLIC "-//W3C//DTD SVG 1.1//EN" "http://www.w3.org/Graphics/SVG/1.1/DTD/svg11.dtd">
<svg 
 version="1.1" xmlns="http://www.w3.org/2000/svg" xmlns:xlink="http://www.w3.org/1999/xlink" x="0px" y="0px" width="512px"
	 height="512px" viewBox="0 0 512 512" style="enable-background:new 0 0 512 512;" xml:space="preserve"
><g id="7935ec95c421cee6d86eb22ecd144f21"><g></g><path style="display: inline; fill:#ffffff;" d="M226.347,10.5v215.846H30.154V10.5H226.347 M236.347,0.5H20.154v235.846h216.192V0.5
		L236.347,0.5z M157.731,79.115H98.77v78.616h58.962V79.115z M226.347,285.654V501.5H30.154V285.654H226.347 M236.347,275.654
		H20.154V511.5h216.192V275.654L236.347,275.654z M157.731,354.27H98.77v78.615h58.962V354.27z M481.846,10.5v215.846H285.654V10.5
		H481.846 M491.846,0.5H275.654v235.846h216.191V0.5L491.846,0.5z M413.23,79.115H354.27v78.616h58.961V79.115z M314.962,275.654
		h-39.308v39.308h39.308V275.654z M393.577,275.654H354.27v39.308h39.308V275.654z M472.192,275.654h-39.308v39.308h39.308V275.654z
		 M354.27,314.962h-39.308v39.308h39.308V314.962z M432.885,314.962h-39.308v39.308h39.308V314.962z M314.962,354.27h-39.308v39.308
		h39.308V354.27z M393.577,354.27H354.27v39.308h39.308V354.27z M472.192,354.27h-39.308v39.308h39.308V354.27z M354.27,393.577
		h-39.308v39.308h39.308V393.577z M432.885,393.577h-39.308v39.308h39.308V393.577z M314.962,432.885h-39.308v39.308h39.308V432.885
		z M393.577,432.885H354.27v39.308h39.308V432.885z M472.192,432.885h-39.308v39.308h39.308V432.885z M354.27,472.192h-39.308V511.5
		h39.308V472.192z M432.885,472.192h-39.308V511.5h39.308V472.192z"></path></g></svg>