<?xml version="1.0" encoding="UTF-8" standalone="no"?>
<svg width="60px" height="60px" viewBox="0 0 60 60" version="1.1" xmlns="http://www.w3.org/2000/svg" xmlns:xlink="http://www.w3.org/1999/xlink" xmlns:sketch="http://www.bohemiancoding.com/sketch/ns">
    <!-- Generator: Sketch 3.2.2 (9983) - http://www.bohemiancoding.com/sketch -->
    <title>Partybloop</title>
    <desc>Created with Sketch.</desc>
    <defs></defs>
    <g id="stroked" stroke="none" stroke-width="1" fill="none" fill-rule="evenodd" sketch:type="MSPage">
        <g id="Holidays" sketch:type="MSLayerGroup" transform="translate(-13.000000, -1078.000000)" stroke="#000000" stroke-width="2" stroke-linecap="round" stroke-linejoin="round">
            <g id="Partybloop" transform="translate(37.534610, 1112.123106) rotate(-315.000000) translate(-37.534610, -1112.123106) translate(13.534610, 1083.623106)" sketch:type="MSShapeGroup">
                <ellipse id="Oval-1735" cx="22" cy="28" rx="13" ry="5"></ellipse>
                <path d="M9,57 L22,29 L35,57" id="Triangle-80" transform="translate(22.000000, 43.000000) scale(-1, -1) translate(-22.000000, -43.000000) "></path>
                <path d="M8,22 L3,12" id="Path-4299"></path>
                <path d="M14,20 L10,2" id="Path-4300"></path>
                <path d="M21,19 L20.5,12" id="Path-4301"></path>
                <path d="M27,19.5 L29.5,8" id="Path-4302"></path>
                <path d="M32,21 L40,6" id="Path-4303"></path>
                <path d="M38,23 L43.5,17.5" id="Path-4304"></path>
                <path d="M20,8 L19.5,3" id="Path-4305"></path>
                <path d="M1.5,9.5 L0.5,8" id="Path-4306"></path>
                <path d="M45.5,15.5 L47.5,13.5" id="Path-4308"></path>
                <path d="M42,3.5 L44,0" id="Path-4309"></path>
            </g>
        </g>
    </g>
</svg>