<?xml version="1.0" encoding="iso-8859-1"?>
<!DOCTYPE svg PUBLIC "-//W3C//DTD SVG 1.1//EN" "http://www.w3.org/Graphics/SVG/1.1/DTD/svg11.dtd">
<svg 
 version="1.1" xmlns="http://www.w3.org/2000/svg" xmlns:xlink="http://www.w3.org/1999/xlink" x="0px" y="0px" width="512px"
	 height="512px" viewBox="0 0 512 512" enable-background="new 0 0 512 512" xml:space="preserve"
><g id="5151e0c8492e5103c096af88a5282475"><g></g><path display="inline" d="M256,0.5C114.891,0.5,0.5,114.893,0.5,256S114.891,511.5,256,511.5c141.107,0,255.5-114.393,255.5-255.5
		S397.107,0.5,256,0.5z M256,477.434c-122.099,0-221.433-99.335-221.433-221.434S133.901,34.566,256,34.566
		S477.434,133.901,477.434,256S378.099,477.434,256,477.434z M256,85.667c-94.07,0-170.333,76.259-170.333,170.333
		c0,94.065,76.264,170.333,170.333,170.333c94.074,0,170.333-76.268,170.333-170.333C426.333,161.926,350.074,85.667,256,85.667z
		 M256,392.267c-75.138,0-136.267-61.13-136.267-136.267c0-75.136,61.128-136.267,136.267-136.267
		c75.137,0,136.267,61.13,136.267,136.267C392.267,331.137,331.137,392.267,256,392.267z"></path></g></svg>