<?xml version="1.0" encoding="iso-8859-1"?>
<!DOCTYPE svg PUBLIC "-//W3C//DTD SVG 1.1//EN" "http://www.w3.org/Graphics/SVG/1.1/DTD/svg11.dtd">
<svg 
 version="1.1" xmlns="http://www.w3.org/2000/svg" xmlns:xlink="http://www.w3.org/1999/xlink" x="0px" y="0px" width="512px"
	 height="512px" viewBox="0 0 512 512" style="enable-background:new 0 0 512 512;" xml:space="preserve"
><g id="afcae5a789ccd549f9c6e2a2f80e8fc5"><g></g><path style="display: inline;" d="M498.231,269.269C498.231,403.046,389.778,511.5,256,511.5
		c-133.777,0-242.231-108.454-242.231-242.231c0-105.46,67.422-195.136,161.493-228.395v65.714
		c-59.767,29.78-100.936,91.5-100.936,162.681c0,100.17,81.495,181.674,181.674,181.674s181.674-81.504,181.674-181.674
		c0-71.181-41.169-132.9-100.927-162.681V40.874C430.818,74.133,498.231,163.809,498.231,269.269z M286.279,40.874
		C286.279,18.667,272.653,0.5,256,0.5s-30.279,18.167-30.279,40.374v161.489c0,22.202,13.626,40.369,30.279,40.369
		s30.279-18.167,30.279-40.369V40.874z"></path></g></svg>